<?xml version="1.0" encoding="UTF-8"?>
<svg id="Layer_1" xmlns="http://www.w3.org/2000/svg" version="1.1" viewBox="0 0 1000 340.86">
  <!-- Generator: Adobe Illustrator 29.7.1, SVG Export Plug-In . SVG Version: 2.1.1 Build 8)  -->
  <path d="M294.72,151.88c-6.48-6.07-26.78-3.68-66.03-1.54,7.73-32.34,13.26-60.59,27.74-82.63,67.2,3.72,149.78,13.06,244.32,12.8,186.24-.53,187.88-69.08,187.88-69.08-79.21,22.58-188.04,15.87-270.31,8.39C314.99,10.43,211.66-13.07,126.28,9.5,25.46,36.14,15.77,110.15,19.36,141.92c40.42-52.51,95.16-71.19,165.26-75.1,6.64-.35,13.63-.51,20.8-.56-12.75,13.19-22.65,33.99-32.86,66.38-2.25,7.11-4.41,13.91-6.55,20.54-86.22,7.42-102.97,46.35-98,56.57,5.26,10.89,35.84-3.39,74.06-7.57,2.42-.27,4.77-.51,7.1-.73-14.94,38.11-31.39,65.34-57.92,81.24-40.46,24.29-82.75,13.04-91.25,6.3,3.29,44.49,70.93,68.74,128.45,37.62,45.85-24.79,72.39-83.99,86.92-128.33,12.51-.18,24.52-.32,37.89-1.2,34.72-2.33,49.93-37.25,41.47-45.21"/>
  <path d="M973.34,110.92c2.3-7.21,10-11.15,17.16-8.86,7.18,2.29,11.16,10,8.82,17.19-2.28,7.16-9.96,11.13-17.16,8.84l-1.7-.71-35.37,45.33-94.93-30.49-2.41-57.32-1.59-.41c-7.18-2.32-11.14-10-8.83-17.17,2.3-7.18,9.98-11.13,17.16-8.83,7.18,2.29,11.14,9.98,8.83,17.17-1.1,3.42-3.44,6.15-6.37,7.78,3.76,17.07,8.47,31.08,14.78,33.15,8.21,2.59,15.98-18.93,21.16-39.98-6.31-3.29-9.51-10.72-7.27-17.74,2.5-7.8,10.91-12.11,18.7-9.61,7.85,2.52,12.17,10.89,9.66,18.72-1.81,5.61-6.64,9.42-12.12,10.2-2.55,22.07-3.2,42.28,6.6,45.41l.34.06c9.75,2.85,20.87-13.89,31.54-33.22-3.85-3.83-5.53-9.66-3.74-15.21,2.48-7.83,10.87-12.12,18.68-9.62,7.85,2.5,12.17,10.89,9.65,18.72-2.26,7.07-9.33,11.27-16.44,10.16-8.03,20.12-14.23,42.19-6.01,44.82,6.33,2.06,18.39-6.71,31.43-18.52-1.37-2.98-1.7-6.48-.6-9.85"/>
  <path d="M929.26,178.06c-2.49-1.65-71.73-22.44-71.73-22.44,0,0-22.59,8.37-38.27,23.07-5.35,4.98-10.51,10.18-15.16,15.92h-.03l-.07.13c-4.32,5.37-7.74,11.1-11.36,17.24-5.06,8.52-9.51,17.46-12.96,26.84v-.04s-9.08,18.97-15.76,28.44c-6.44,9.19-18.71,18-23.62,21.32-5.41,2.48-11.32,4.77-17.72,6.62-40.29,11.61-47.71-17.06-38.7-30.6,3.26-4.83,25.56-21.77,40.82-34.35,29.49-24.23,49.7-39.58,63.58-53.51,14.71-14.75,5.21-22.91-6.2-24.84-28.49-4.85-41.52,2.65-49.83,9.68-10,8.48-69.61,79.54-69.61,79.54,0,0,97.04-185.59,112.96-217.48,13.13-26.28-49.9-29.91-67.33,7.89-10.11,21.98-79.64,181.26-88.11,200.94-15.52,36.02-16.44,41.67-24.21,47.98l-.26.28-.56.39-.07.04c-7.47,6.11-17.94,11.63-24.92,11.52-4.2-.06-6.67-2.53-7.38-7.63-.72-5.09-.1-11.59,1.85-19.48,1.16-4.7,2.72-9.88,4.67-15.48,1.99-5.58,4.11-11.26,6.42-17,2.3-5.72,4.68-11.34,7.11-16.78,2.44-5.5,4.67-10.51,6.69-15.11,2.04-4.57,3.73-8.54,5.14-11.85,1.41-3.29,2.26-5.66,2.59-7.05,2.35-9.41,1.9-17.9-.55-23.26-2.44-5.35-6.87-8-13.24-8s-12.4,1.76-17.99,4.89c-6.11,3.46-11.67,7.27-17.45,14.16-1.28,1.52-3.22,3.87-5.79,7.06-2.55,3.18-5.46,6.85-8.64,10.98-3.2,4.13-6.6,8.49-10.18,12.98-3.63,4.54-6.99,8.8-10.18,12.89-3.2,4.1-6,7.67-8.41,10.79-2.48,3.13-4.2,5.37-5.32,6.79h-3.83c.22-.89.83-2.63,1.86-5.26,1.03-2.6,2.28-5.67,3.71-9.17,1.45-3.48,2.98-7.32,4.65-11.44,1.67-4.15,3.26-8.16,4.79-12.05,1.54-3.88,2.9-7.43,4.09-10.69,1.18-3.25,2.01-5.81,2.48-7.74,1.71-7,1.77-12.6.13-16.8-1.65-4.18-5.92-6.31-12.8-6.31s-12.82,2-17.83,5.94c-4.99,3.95-8.92,8.84-11.76,14.69-3.65,7.52-7.74,16.55-12.28,27.13-4.5,10.59-8.97,21.53-13.31,32.94-4.34,11.4-8.4,22.6-12.14,33.61-1.71,5.07-3.24,9.84-4.61,14.33-9.09,4.58-18.48,8.44-28.21,11.38-3.74,1.13-8.39,1.89-11.07-.93-1.96-2.09-2.01-5.3-1.74-8.15,1.39-15.09,7.92-29.15,14.11-42.96,10.42-23.26,20.15-46.8,29.21-70.65,1.12-2.98,2.26-6.25,1.26-9.26-1.52-4.77-7.25-6.51-12.17-7.16-10.69-1.39-22.99-.31-29.89,7.95-2.28,2.72-3.76,6.02-5.19,9.28-11.8,26.61-23.6,53.26-35.41,79.89-7.43,16.77-16.61,35.23-33.98,41.21-3,1.03-6.4,1.61-9.31.33-3.71-1.65-5.62-6-5.62-10.1s1.59-7.93,3.13-11.7c14.59-35.52,25.37-60.22,39.95-95.8.69-1.61,4.31-9.93,4.41-13.83.07-2.76-2.04-5.11-3.76-5.9-9.31-4.24-20.65-1.67-29.06,4.15-13.21,9.23-20.45,24.12-26.96,38.25-7.25,15.73-14.63,31.42-21.21,47.43-7.54,18.32-15.62,36.06-19.75,55.48-2.1,9.91-1.52,22.72,5.7,29.82,4.7,4.65,11.76,5.98,18.32,6.18,26.73.85,52.03-13.13,71.54-31.41.67,9.68,2.11,20.76,10.22,26.1,5.17,3.43,11.82,3.51,17.97,2.86,12.41-1.29,24.39-5.16,35.95-9.77,4.81-1.91,9.61-3.98,14.31-6.16.06,2.08.25,4.03.65,5.85.8,3.76,2.51,6.74,5.17,8.98,2.64,2.24,6.57,3.36,11.8,3.36,4.23,0,8.15-.96,11.81-2.88,3.67-1.9,7.4-5.46,11.25-10.68l74.73-99.33h3.07c-4.05,10.21-7.68,19.69-10.89,28.56-3.22,8.86-5.75,17.11-7.63,24.74-4.83,19.48-6.09,34.28-3.81,44.39,2.29,10.13,6.94,15.2,13.96,15.2s13.96-.99,20.83-2.97c6.87-1.98,13.66-4.53,20.31-7.64,4.6-2.15,9.1-4.6,13.56-7.14,0,1.67-.47,4.88-.54,6.39-.26,5.48.56,6.62,3.15,9,2.55,2.35,5.19,2.57,10.66,2.57,4.12,0,5.59-.33,9.19-2.97,3.4-2.44,15.72-20.6,25.17-33.57,1.57-2.12,3.3-4.34,5.16-6.61-3.47,16.06,4.02,39.5,26.4,43.15,21.76,3.55,57.15-1.37,102.83-36.57.81,4.91,2.03,9.54,3.76,13.87,3.31,8.29,8.52,15.02,15.63,20.16,7.11,5.14,16.57,7.72,28.38,7.72,8.19,0,16.24-1.4,24.16-4.23,7.94-2.79,15.55-6.61,22.86-11.42,7.27-4.81,14.09-10.5,20.49-17.04,6.39-6.56,12.12-13.57,17.27-21.06,4.86-7.08,9.04-14.45,12.64-22.02,6.56-14.79,9.71-25.84,12.98-42.85,1.53-9.07,2.35-17.08,2.22-24.44,0,0-.81-18.09-3.29-19.73M881.42,261.89c-17.61,30.94-42.77,46.7-56.17,35.2-13.42-11.49-10.02-45.85,7.6-76.76,17.61-30.95,42.79-46.71,56.18-35.23,13.42,11.49,10.02,45.87-7.61,76.8"/>
</svg>